<?xml version="1.0" standalone="no"?>
<svg xmlns:xlink="http://www.w3.org/1999/xlink" id="wave" style="transform:rotate(180deg); transition: 0.3s" viewBox="0 0 1440 490" version="1.1" xmlns="http://www.w3.org/2000/svg"><defs><linearGradient id="sw-gradient-0" x1="0" x2="0" y1="1" y2="0"><stop stop-color="rgba(243, 106, 62, 1)" offset="0%"/><stop stop-color="rgba(255, 179, 11, 1)" offset="100%"/></linearGradient></defs><path style="transform:translate(0, 0px); opacity:1" fill="url(#sw-gradient-0)" d="M0,441L40,416.5C80,392,160,343,240,269.5C320,196,400,98,480,57.2C560,16,640,33,720,49C800,65,880,82,960,106.2C1040,131,1120,163,1200,220.5C1280,278,1360,359,1440,334.8C1520,310,1600,180,1680,147C1760,114,1840,180,1920,196C2000,212,2080,180,2160,212.3C2240,245,2320,343,2400,318.5C2480,294,2560,147,2640,81.7C2720,16,2800,33,2880,65.3C2960,98,3040,147,3120,138.8C3200,131,3280,65,3360,106.2C3440,147,3520,294,3600,351.2C3680,408,3760,376,3840,318.5C3920,261,4000,180,4080,179.7C4160,180,4240,261,4320,310.3C4400,359,4480,376,4560,383.8C4640,392,4720,392,4800,367.5C4880,343,4960,294,5040,285.8C5120,278,5200,310,5280,269.5C5360,229,5440,114,5520,65.3C5600,16,5680,33,5720,40.8L5760,49L5760,490L5720,490C5680,490,5600,490,5520,490C5440,490,5360,490,5280,490C5200,490,5120,490,5040,490C4960,490,4880,490,4800,490C4720,490,4640,490,4560,490C4480,490,4400,490,4320,490C4240,490,4160,490,4080,490C4000,490,3920,490,3840,490C3760,490,3680,490,3600,490C3520,490,3440,490,3360,490C3280,490,3200,490,3120,490C3040,490,2960,490,2880,490C2800,490,2720,490,2640,490C2560,490,2480,490,2400,490C2320,490,2240,490,2160,490C2080,490,2000,490,1920,490C1840,490,1760,490,1680,490C1600,490,1520,490,1440,490C1360,490,1280,490,1200,490C1120,490,1040,490,960,490C880,490,800,490,720,490C640,490,560,490,480,490C400,490,320,490,240,490C160,490,80,490,40,490L0,490Z"/></svg>